<svg id="logos" xmlns="http://www.w3.org/2000/svg" viewBox="0 0 861.24 246.07">
    <defs>
        <style>.cls-1{fill:#122e49;}</style>
    </defs>
    <path class="cls-1"
          d="M749.4,169.83c23.22,0,41.88-9.91,53.31-26.69l-10.66-7.41c-9.33,13.52-23.82,21.72-42.65,21.72-30.28,0-52.18-23.06-52.18-53.91s21.9-53.88,52.18-53.88c18.64,0,32.56,8,40.93,20.37l10.48-7.6c-11.06-16.57-28.57-25.15-51.41-25.15-36.77,0-66.46,27.23-66.46,66.26s29.69,66.29,66.46,66.29"/>
    <path class="cls-1"
          d="M627,37.69h-2.29l-53.77,131h13l8.68-22H659l8.88,22h14Zm-29.13,97,22.85-57.52c2.47-6.09,5.15-15.42,5.15-15.42a160.64,160.64,0,0,0,4.94,15.42l22.86,57.52Z"/>
    <path class="cls-1"
          d="M500,38.69h-31.3v129H500c43.26,0,69.81-25.41,69.81-64.51S543,38.69,500,38.69Zm-1.51,117H481.65v-105h16.79c38.38,0,56.71,21.58,56.71,52.49S536.82,155.69,498.44,155.69Z"/>
    <polygon class="cls-1"
             points="365.65 168.69 446.65 168.69 446.65 156.69 378.65 156.69 378.65 123.69 437.65 123.69 437.65 111.69 379.65 111.69 379.65 50.69 444.65 50.69 444.65 38.69 365.65 38.69 365.65 168.69"/>
    <path class="cls-1"
          d="M307.8,37.48h-2.29l-35.4,92.15a130.7,130.7,0,0,0-4,12.76,110.85,110.85,0,0,0-3.83-12.76L227.44,37.48h-2.29L182.52,168.29h13.89l27-86.25c1.7-5.53,3.61-14.1,3.61-14.1s2.09,8.57,4.19,14.1L265,169.63h2.27L300.94,82c2.1-5.53,4.2-14.1,4.2-14.1s1.9,8.39,3.61,14.1L336,168.29h14.66Z"/>
    <path class="cls-1"
          d="M59.2,123.47a31.85,31.85,0,0,1,16-4c9.69,0,22.11,6.72,33.85,6.33,7.68,0,19.14-4.63,29.53-6.33A53.2,53.2,0,0,1,158,122.17s0,10.49-18.5,25.39l-31,22.27s-24.08-16.64-35.33-25.94S59.2,123.47,59.2,123.47Z"/>
    <path class="cls-1"
          d="M158.46,108.2v7.48s-10.7-3-16.61-2.85c-9.14.24-25.13,5.07-33.16,5.15s-22.78-4.69-31.79-5-18.21,4.15-18.21,4.15v-7.49a43.15,43.15,0,0,1,17.81-3.7c9.91,0,19.59,5.31,32.4,4.91s24.13-5.46,32.95-5.5A53,53,0,0,1,158.46,108.2Z"/>
    <path class="cls-1"
          d="M85.75,57.39l1.69,7.85,7.63,1.64-7.63,1.74L85.8,76.27l-1.74-7.65-7.84-1.69,7.8-1.8ZM58.69,102a64.53,64.53,0,0,1,18-3.15c11.47,0,17.9,5.88,33.8,4.86s21.57-4.84,33.41-4.86,14.52,1.7,14.52,1.7V64L141.85,94.54l-5.91.72L158.46,54V44L128.65,96.77l-7,.91,34.88-60.4h-5.76L114.85,99l-6,.39,36.19-62.11H139.3L103.84,99.11l-5.18-.28,34.88-61.55H58.69Z"/>
    <path class="cls-1" d="M58.53,190h3.4v28.68h-3.4Z"/>
    <path class="cls-1"
          d="M68.5,204.25c0-1.75-.16-3.24-.16-4.5h3c0,1,.08,2.07.08,3.12h.09a6.89,6.89,0,0,1,6.32-3.61c5,0,7.21,3.16,7.21,7.74v11.71H81.87V207.32c0-3.16-1.38-5.14-4.34-5.14-4.09,0-5.87,3-5.87,7.29v9.24H68.5Z"/>
    <path class="cls-1"
          d="M91.43,213.73a5.86,5.86,0,0,0,4.86,2.55c2,0,4.17-.85,4.17-2.92s-2-2.55-4-3c-3.61-.81-6.68-1.58-6.68-5.51,0-3.68,3.56-5.59,7.09-5.59a6.9,6.9,0,0,1,6.44,3.45l-2.64,1.74a4.5,4.5,0,0,0-4-2.27c-1.74,0-3.72.85-3.72,2.63,0,1.58,2.26,2.27,4.78,2.76,3.36.65,6.19,1.86,6.19,5.67,0,4.29-3.8,6-7.57,6-3.2,0-5.51-.86-7.37-3.53Z"/>
    <path class="cls-1"
          d="M118.65,202.42h-5.59v9.48c0,2.43,0,4.38,2.84,4.38a6.08,6.08,0,0,0,2.79-.65l.12,2.88a9.7,9.7,0,0,1-3.68.69c-4.5,0-5.23-2.44-5.23-6.37V202.42h-4.13v-2.67h4.13v-5.39h3.16v5.39h5.59Z"/>
    <path class="cls-1"
          d="M124.4,190a2.3,2.3,0,0,1,2.31,2.31,2.31,2.31,0,0,1-4.62,0A2.31,2.31,0,0,1,124.4,190Zm-1.58,9.72H126v19h-3.16Z"/>
    <path class="cls-1"
          d="M142.63,202.42H137v9.48c0,2.43,0,4.38,2.84,4.38a6.08,6.08,0,0,0,2.79-.65l.13,2.88a9.78,9.78,0,0,1-3.69.69c-4.5,0-5.23-2.44-5.23-6.37V202.42h-4.13v-2.67h4.13v-5.39H137v5.39h5.59Z"/>
    <path class="cls-1"
          d="M163.05,214.21c0,1.74.16,3.24.16,4.5h-3c0-1-.09-2.07-.09-3.12h-.08a6.89,6.89,0,0,1-6.32,3.61c-5,0-7.21-3.17-7.21-7.74V199.75h3.16v11.38c0,3.16,1.38,5.15,4.34,5.15,4.09,0,5.87-3,5.87-7.29v-9.24h3.16Z"/>
    <path class="cls-1"
          d="M179.42,202.42h-5.59v9.48c0,2.43,0,4.38,2.83,4.38a6.09,6.09,0,0,0,2.8-.65l.12,2.88a9.71,9.71,0,0,1-3.69.69c-4.49,0-5.22-2.44-5.22-6.37V202.42h-4.13v-2.67h4.13v-5.39h3.16v5.39h5.59Z"/>
    <path class="cls-1"
          d="M192.34,199.26c5.83,0,10.13,4.05,10.13,10s-4.3,10-10.13,10-10.13-4.06-10.13-10S186.51,199.26,192.34,199.26Zm0,17c4.09,0,6.73-3.08,6.73-7.05s-2.64-7-6.73-7-6.72,3.08-6.72,7S188.25,216.28,192.34,216.28Z"/>
    <path class="cls-1"
          d="M217.54,204.37c0-8.67,6.28-15.07,15-15.07s15,6.4,15,15.07-6.28,15.07-15,15.07S217.54,213,217.54,204.37Zm26.33,0c0-6.61-4.62-11.91-11.34-11.91s-11.34,5.3-11.34,11.91,4.61,11.91,11.34,11.91S243.87,211,243.87,204.37Z"/>
    <path class="cls-1"
          d="M261.82,202.42H257.2v16.29H254V202.42h-4.13v-2.67H254V195.5c0-4.62,1.62-7.9,6.73-7.9a5.86,5.86,0,0,1,2.43.48l-.45,2.84a6.36,6.36,0,0,0-2.15-.41c-3.28,0-3.4,2.39-3.4,5.67v3.57h4.62Zm4.5-12.39a2.3,2.3,0,0,1,2.3,2.31,2.31,2.31,0,0,1-4.61,0A2.3,2.3,0,0,1,266.32,190Zm-1.58,9.72h3.16v19h-3.16Z"/>
    <path class="cls-1"
          d="M287.66,204.49a5.81,5.81,0,0,0-4.78-2.31c-4.25,0-6.4,3.16-6.4,7s2.56,7.05,6.4,7.05a5.55,5.55,0,0,0,4.83-2.35l2.35,2.23a9.25,9.25,0,0,1-7.18,3c-5.87,0-9.8-4.14-9.8-10s4-10,9.8-10a9.64,9.64,0,0,1,7.3,3Z"/>
    <path class="cls-1"
          d="M295.56,190a2.3,2.3,0,0,1,2.31,2.31,2.31,2.31,0,0,1-4.61,0A2.3,2.3,0,0,1,295.56,190ZM294,199.75h3.16v19H294Z"/>
    <path class="cls-1"
          d="M303.18,202.18a10.53,10.53,0,0,1,7.54-2.92c5.59,0,7.94,2.68,7.94,8v8.15a21.31,21.31,0,0,0,.28,3.28h-3a13.77,13.77,0,0,1-.2-2.84h-.08a7.16,7.16,0,0,1-6.24,3.33c-3.85,0-7.05-1.95-7.05-5.64,0-6.28,7.29-6.64,11.95-6.64h1.22v-.57c0-2.75-1.75-4.17-4.7-4.17a8.37,8.37,0,0,0-5.63,2.07Zm9.16,7.41c-4,0-6.61,1.1-6.61,3.65,0,2.39,1.79,3.28,4.18,3.28,3.64,0,5.5-2.63,5.59-5.71v-1.22Z"/>
    <path class="cls-1" d="M324.73,188.08h3.16v30.63h-3.16Z"/>
    <path class="cls-1"
          d="M361.19,215.35h-.08a8.22,8.22,0,0,1-7.29,3.85c-5.31,0-9.48-4.3-9.48-10a9.56,9.56,0,0,1,10-10,8.8,8.8,0,0,1,6.8,3.24h.08V188.08h3.16v30.63h-3.16Zm-6.72-13.17c-4.09,0-6.73,3.08-6.73,7s2.64,7.05,6.73,7.05,6.72-3.08,6.72-7.05S358.56,202.18,354.47,202.18Z"/>
    <path class="cls-1"
          d="M387.12,215.27a9.74,9.74,0,0,1-8.43,3.93c-5.95,0-9.6-4.46-9.6-10,0-5.88,4.14-10,9.73-10,5.34,0,9,3.65,9,9.93v1H372.5a6.34,6.34,0,0,0,6.19,6.08,7.05,7.05,0,0,0,6-2.88Zm-2.71-7.74c-.12-3.2-2.23-5.35-5.72-5.35a5.86,5.86,0,0,0-6.19,5.35Z"/>
    <path class="cls-1" d="M404.54,190h17.79v3.16H407.94v9.48h13.37v3.16H407.94v12.88h-3.4Z"/>
    <path class="cls-1"
          d="M435.53,199.26c5.84,0,10.13,4.05,10.13,10s-4.29,10-10.13,10-10.12-4.06-10.12-10S429.7,199.26,435.53,199.26Zm0,17c4.09,0,6.73-3.08,6.73-7.05s-2.64-7-6.73-7-6.72,3.08-6.72,7S431.44,216.28,435.53,216.28Z"/>
    <path class="cls-1"
          d="M450.56,204.25c0-1.75-.16-3.24-.16-4.5h3c0,1,.08,2.07.08,3.12h.08a6.89,6.89,0,0,1,6.32-3.61,3.61,3.61,0,0,1,1.3.21l-.21,3.2a5.64,5.64,0,0,0-1.7-.25c-3.85,0-5.55,2.72-5.55,7.05v9.24h-3.16Z"/>
    <path class="cls-1"
          d="M464.82,204.25c0-1.75-.16-3.24-.16-4.5h3c0,1,.08,2.07.08,3.12h.08a6.89,6.89,0,0,1,6.32-3.61c4.09,0,5.39,2.31,6,3.61,1.37-2.23,3.12-3.61,6-3.61,5.43,0,7.21,3,7.21,7.94v11.51h-3.16V207.37c0-2.64-.93-5.19-4.62-5.19-2.67,0-4.9,2.19-4.9,5.59v10.94H477.5V208c0-4.17-1.05-5.79-3.64-5.79-4.09,0-5.88,3-5.88,7.29v9.24h-3.16Z"/>
    <path class="cls-1"
          d="M499.1,202.18a10.52,10.52,0,0,1,7.53-2.92c5.59,0,7.94,2.68,7.94,8v8.15a21.31,21.31,0,0,0,.28,3.28h-3a13.13,13.13,0,0,1-.21-2.84h-.08a7.15,7.15,0,0,1-6.24,3.33c-3.85,0-7.05-1.95-7.05-5.64,0-6.28,7.3-6.64,12-6.64h1.21v-.57c0-2.75-1.74-4.17-4.7-4.17a8.41,8.41,0,0,0-5.63,2.07Zm9.15,7.41c-4,0-6.6,1.1-6.6,3.65,0,2.39,1.78,3.28,4.17,3.28,3.65,0,5.51-2.63,5.59-5.71v-1.22Z"/>
    <path class="cls-1"
          d="M533.85,204.49a5.81,5.81,0,0,0-4.78-2.31c-4.25,0-6.4,3.16-6.4,7s2.56,7.05,6.4,7.05a5.53,5.53,0,0,0,4.82-2.35l2.35,2.23a9.22,9.22,0,0,1-7.17,3c-5.87,0-9.8-4.14-9.8-10s4-10,9.8-10a9.64,9.64,0,0,1,7.3,3Z"/>
    <path class="cls-1"
          d="M541.75,190a2.3,2.3,0,0,1,2.31,2.31,2.31,2.31,0,0,1-4.62,0A2.31,2.31,0,0,1,541.75,190Zm-1.58,9.72h3.16v19h-3.16Z"/>
    <path class="cls-1"
          d="M558.65,199.26c5.83,0,10.13,4.05,10.13,10s-4.3,10-10.13,10-10.13-4.06-10.13-10S552.81,199.26,558.65,199.26Zm0,17c4.09,0,6.72-3.08,6.72-7.05s-2.63-7-6.72-7-6.73,3.08-6.73,7S554.56,216.28,558.65,216.28Zm1.42-26.9h4.45l-5.79,5.83h-2.88Z"/>
    <path class="cls-1"
          d="M573.68,204.25c0-1.75-.16-3.24-.16-4.5h3c0,1,.08,2.07.08,3.12h.08a6.92,6.92,0,0,1,6.33-3.61c5,0,7.21,3.16,7.21,7.74v11.71h-3.16V207.32c0-3.16-1.38-5.14-4.34-5.14-4.09,0-5.87,3-5.87,7.29v9.24h-3.16Z"/>
    <path class="cls-1"
          d="M608,190h8.51c5.27,0,10.05,1.86,10.05,7.86,0,6.27-5.35,7.94-9.4,7.94h-5.76v12.88H608Zm3.4,12.64h5.76c3.4,0,5.75-1.54,5.75-4.74s-2.35-4.74-5.75-4.74h-5.76Z"/>
    <path class="cls-1"
          d="M631.49,204.25c0-1.75-.16-3.24-.16-4.5h3c0,1,.08,2.07.08,3.12h.08a6.92,6.92,0,0,1,6.32-3.61,3.57,3.57,0,0,1,1.3.21l-.2,3.2a5.74,5.74,0,0,0-1.7-.25c-3.85,0-5.55,2.72-5.55,7.05v9.24h-3.16Z"/>
    <path class="cls-1"
          d="M654.05,199.26c5.84,0,10.13,4.05,10.13,10s-4.29,10-10.13,10-10.13-4.06-10.13-10S648.22,199.26,654.05,199.26Zm0,17c4.09,0,6.73-3.08,6.73-7.05s-2.64-7-6.73-7-6.72,3.08-6.72,7S650,216.28,654.05,216.28Z"/>
    <path class="cls-1"
          d="M670.7,202.42h-4.13v-2.67h4.13V195.5c0-4.62,1.62-7.9,6.73-7.9a5.86,5.86,0,0,1,2.43.48l-.45,2.84a6.3,6.3,0,0,0-2.14-.41c-3.29,0-3.41,2.39-3.41,5.67v3.57h4.62v2.67h-4.62v16.29H670.7Z"/>
    <path class="cls-1"
          d="M698.78,215.27a9.76,9.76,0,0,1-8.43,3.93c-6,0-9.6-4.46-9.6-10,0-5.88,4.13-10,9.72-10,5.35,0,9,3.65,9,9.93v1H684.15a6.35,6.35,0,0,0,6.2,6.08,7.06,7.06,0,0,0,6-2.88Zm-2.72-7.74c-.12-3.2-2.23-5.35-5.71-5.35a5.88,5.88,0,0,0-6.2,5.35Z"/>
    <path class="cls-1"
          d="M704.77,213.73a5.89,5.89,0,0,0,4.86,2.55c2,0,4.18-.85,4.18-2.92s-2-2.55-4-3c-3.61-.81-6.69-1.58-6.69-5.51,0-3.68,3.57-5.59,7.09-5.59,2.67,0,5.15,1,6.44,3.45L714,204.45a4.51,4.51,0,0,0-4-2.27c-1.74,0-3.73.85-3.73,2.63,0,1.58,2.27,2.27,4.78,2.76,3.36.65,6.2,1.86,6.2,5.67,0,4.29-3.81,6-7.58,6-3.2,0-5.51-.86-7.37-3.53Z"/>
    <path class="cls-1"
          d="M723.49,190a2.3,2.3,0,0,1,2.31,2.31,2.31,2.31,0,0,1-4.62,0A2.3,2.3,0,0,1,723.49,190Zm-1.58,9.72h3.16v19h-3.16Z"/>
    <path class="cls-1"
          d="M740.38,199.26c5.84,0,10.13,4.05,10.13,10s-4.29,10-10.13,10-10.13-4.06-10.13-10S734.55,199.26,740.38,199.26Zm0,17c4.09,0,6.73-3.08,6.73-7.05s-2.64-7-6.73-7-6.72,3.08-6.72,7S736.29,216.28,740.38,216.28Z"/>
    <path class="cls-1"
          d="M755.41,204.25c0-1.75-.16-3.24-.16-4.5h3c0,1,.08,2.07.08,3.12h.08a6.89,6.89,0,0,1,6.32-3.61c5,0,7.21,3.16,7.21,7.74v11.71h-3.16V207.32c0-3.16-1.38-5.14-4.33-5.14-4.1,0-5.88,3-5.88,7.29v9.24h-3.16Z"/>
    <path class="cls-1"
          d="M777.69,202.18a10.55,10.55,0,0,1,7.54-2.92c5.59,0,7.94,2.68,7.94,8v8.15a21.31,21.31,0,0,0,.28,3.28h-3a13.77,13.77,0,0,1-.2-2.84h-.08a7.16,7.16,0,0,1-6.24,3.33c-3.85,0-7-1.95-7-5.64,0-6.28,7.3-6.64,11.95-6.64H790v-.57c0-2.75-1.74-4.17-4.7-4.17a8.39,8.39,0,0,0-5.63,2.07Zm9.16,7.41c-4,0-6.6,1.1-6.6,3.65,0,2.39,1.78,3.28,4.17,3.28,3.64,0,5.51-2.63,5.59-5.71v-1.22Z"/>
    <path class="cls-1" d="M799.25,188.08h3.16v30.63h-3.16Z"/>
</svg>